<svg width="100px" height="100px" viewBox="0 0 100 100" version="1.1" xmlns="http://www.w3.org/2000/svg" xmlns:xlink="http://www.w3.org/1999/xlink">
    <g id="Symbols" stroke="none" stroke-width="1" fill="none" fill-rule="evenodd">
        <g id="Logo" fill="#3C3C3C">
            <g id="Combined-Shape">
                <path d="M88.7398251,60 L78.2929429,60 C74.1745788,71.6519237 63.0621883,80 50,80 C33.4314575,80 20,66.5685425 20,50 C20,33.4314575 33.4314575,20 50,20 C60.7704846,20 70.2153214,25.675773 75.5066843,34.199493 L62.2629987,34.199493 C58.8764698,31.5673612 54.6212733,30 50,30 C38.954305,30 30,38.954305 30,50 C30,61.045695 38.954305,70 50,70 C57.4028213,70 63.8662579,65.9780162 67.3243529,60.0000056 L50,60 L50,50 L90,50 L100,50 C100,77.6142375 77.6142375,100 50,100 C22.3857625,100 0,77.6142375 0,50 C0,22.3857625 22.3857625,0 50,0 C72.0926353,0 90.8386693,14.3285033 97.4520853,34.199493 L86.7581639,34.199493 C80.6316667,19.965792 66.4796511,10 50,10 C27.90861,10 10,27.90861 10,50 C10,72.09139 27.90861,90 50,90 C68.6383943,90 84.2993972,77.2522721 88.7398251,60 Z"></path>
            </g>
        </g>
    </g>
</svg>